Coordinates
version=1
nRows=11
nColumns=40
inDegrees=yes

Units are S.I. units (second, meters, Newtons, ...)
Angles are in degrees.

endheader
time	pelvis_tilt	pelvis_list	pelvis_rotation	pelvis_tx	pelvis_ty	pelvis_tz	hip_flexion_r	hip_adduction_r	hip_rotation_r	knee_angle_r	knee_angle_r_beta	ankle_angle_r	subtalar_angle_r	mtp_angle_r	hip_flexion_l	hip_adduction_l	hip_rotation_l	knee_angle_l	knee_angle_l_beta	ankle_angle_l	subtalar_angle_l	mtp_angle_l	lumbar_extension	lumbar_bending	lumbar_rotation	arm_flex_r	arm_add_r	arm_rot_r	elbow_flex_r	pro_sup_r	wrist_flex_r	wrist_dev_r	arm_flex_l	arm_add_l	arm_rot_l	elbow_flex_l	pro_sup_l	wrist_flex_l	wrist_dev_l
      0.91000000	      2.88057464	      0.25736883	     -6.47362673	     -0.91091547	      0.90677558	     -1.47563574	     15.85230588	     -3.80637977	     -8.51220364	    -47.03708537	     -0.82095201	      5.08518634	    -10.82677665	      7.52655957	     -0.73227558	     -3.90873384	     13.51906365	    -12.42872263	     -0.21692213	      6.52277809	     -8.15005855	     -3.09054967	    -10.51289621	      0.26917229	     -0.51174305	      8.49222586	     -9.00219197	     11.73274019	     14.35529037	     89.95437384	      0.00000000	      0.00000000	     11.55474804	     11.99853421	    -17.42857605	     20.64879858	     89.95437384	      0.00000000	      0.00000000
      0.92000000	      2.76316543	      0.37304378	     -6.46586553	     -0.90492411	      0.90642522	     -1.47604483	     16.78717031	     -3.80559826	     -8.93501694	    -45.74311250	     -0.79836792	      5.38841802	    -10.74722969	      7.39936941	     -1.02512494	     -4.11603590	     13.61732224	    -12.40025156	     -0.21642522	      6.70774713	     -8.11036715	     -3.10048201	    -10.33114682	      0.19412142	     -0.69522024	      8.51331931	     -8.97931894	     11.74582538	     14.47733379	     89.95437384	      0.00000000	      0.00000000	     12.10309414	     12.15050251	    -17.27753674	     20.95164755	     89.95437384	      0.00000000	      0.00000000
      0.93000000	      3.40801158	     -0.15327178	     -6.15661372	     -0.89821439	      0.90753026	     -1.47627517	     16.27319352	     -3.17321414	     -9.85332873	    -43.64236498	     -0.76170296	      5.66958065	    -10.98506012	      7.05977286	     -2.44265774	     -3.67159504	     13.42083135	    -12.06547033	     -0.21058218	      6.92777341	     -8.46773803	     -3.17663739	    -11.07836099	      0.76982524	     -1.14033692	      8.60942521	     -8.97830019	     11.66548362	     14.74337913	     89.95437384	      0.00000000	      0.00000000	     12.66441771	     12.14956058	    -16.38352883	     21.21428084	     89.95437384	      0.00000000	      0.00000000
      0.94000000	      3.22514499	     -0.02798643	     -6.20090719	     -0.89220313	      0.90693729	     -1.47639710	     17.24709538	     -3.18909092	    -10.44044635	    -42.25496467	     -0.73748826	      5.96254148	    -10.91752337	      6.96897110	     -2.67886763	     -3.88080148	     13.56493675	    -11.99396196	     -0.20933413	      7.15619370	     -8.40907316	     -3.19047033	    -10.84152498	      0.67955982	     -1.20758880	      8.59683531	     -8.94869280	     11.62403452	     14.91609497	     89.95437384	      0.00000000	      0.00000000	     13.18803297	     12.27612959	    -16.22971623	     21.54891842	     89.95437384	      0.00000000	      0.00000000
      0.95000000	      3.07571998	      0.03766432	     -6.18384027	     -0.88622020	      0.90643502	     -1.47650569	     18.01619985	     -3.15490500	    -11.21077710	    -40.60225067	     -0.70864296	      6.19907064	    -10.81457730	      6.90376682	     -2.99841309	     -4.01485016	     13.61322502	    -11.87683054	     -0.20728980	      7.36058497	     -8.39613380	     -3.20329847	    -10.62877101	      0.65839670	     -1.32605283	      8.56585882	     -8.90184066	     11.55798596	     15.14399450	     89.95437384	      0.00000000	      0.00000000	     13.69262150	     12.38666921	    -16.01659807	     21.89827526	     89.95437384	      0.00000000	      0.00000000
      0.96000000	      3.71881387	     -0.65744476	     -5.69727344	     -0.87965783	      0.90748879	     -1.47671523	     17.27643420	     -2.37832788	    -12.52062539	    -38.09851909	     -0.66494460	      6.11005900	    -10.49077517	      6.79860716	     -4.40097692	     -3.34926341	     13.09596464	    -11.61096191	     -0.20264951	      7.73331143	     -8.70646178	     -3.29520967	    -11.42208946	      1.44040563	     -1.81277199	      8.59275735	     -8.88514532	     11.22287402	     15.59671524	     89.95437384	      0.00000000	      0.00000000	     14.19819144	     12.36574739	    -15.24127247	     22.32987773	     89.95437384	      0.00000000	      0.00000000
      0.97000000	      3.53755615	     -0.39662984	     -5.86140708	     -0.87383495	      0.90673611	     -1.47658477	     18.17253177	     -2.54064515	    -13.22756560	    -36.55333421	     -0.63797603	      6.08012258	    -10.23784251	      6.74975247	     -4.64159863	     -3.68730617	     13.37415654	    -11.55089103	     -0.20160108	      7.90987322	     -8.63585330	     -3.29161673	    -11.18860760	      1.18510111	     -1.76077834	      8.59662692	     -8.79921018	     11.17910005	     15.72462777	     89.95437384	      0.00000000	      0.00000000	     14.67781277	     12.46329291	    -15.04194946	     22.70459972	     89.95437384	      0.00000000	      0.00000000
      0.98000000	      3.74344644	     -0.76069734	     -5.72180809	     -0.86760719	      0.90687295	     -1.47650399	     18.12275428	     -2.07755861	    -14.35504100	    -34.26558312	     -0.59804725	      5.19692622	     -9.24167852	      6.62249098	     -5.47073337	     -3.34309416	     13.27383645	    -11.33101699	     -0.19776355	      8.06615841	     -8.81049428	     -3.31616469	    -11.46594951	      1.61903123	     -1.93894059	      8.56247663	     -8.76758260	     10.94667779	     16.07426857	     89.95437384	      0.00000000	      0.00000000	     15.08359259	     12.43684122	    -14.38919293	     23.17626100	     89.95437384	      0.00000000	      0.00000000
      0.99000000	      4.04690482	     -0.85811902	     -5.69020032	     -0.86122628	      0.90694076	     -1.47641568	     18.09533326	     -1.91647562	    -15.39174843	    -32.25941820	     -0.56303306	      4.56765534	     -8.37453077	      6.24583676	     -6.39837179	     -3.33150394	     13.52438858	    -11.05038493	     -0.19286560	      8.10342210	     -8.98486409	     -3.40499887	    -11.76726935	      1.74537712	     -2.09923482	      8.61150396	     -8.65733441	     10.70285387	     16.27988872	     89.95437384	      0.00000000	      0.00000000	     15.42948776	     12.41160187	    -13.55702228	     23.63219541	     89.95437384	      0.00000000	      0.00000000
      1.00000000	      3.74799959	     -0.65177174	     -5.83772080	     -0.85557915	      0.90590601	     -1.47626112	     18.98547301	     -1.92718554	    -15.79444360	    -30.54326548	     -0.53308055	      3.57686579	     -7.51673541	      6.16613647	     -6.46333958	     -3.60474291	     13.62837478	    -11.04803892	     -0.19282466	      8.25637465	     -8.88851305	     -3.41794371	    -11.47223582	      1.58710835	     -2.02365205	      8.53793333	     -8.59943783	     10.61310652	     16.62232229	     89.95437384	      0.00000000	      0.00000000	     15.79909985	     12.45922275	    -13.36008165	     24.14687433	     89.95437384	      0.00000000	      0.00000000
      1.01000000	      3.68099334	     -0.67765560	     -5.96344085	     -0.84974557	      0.90525304	     -1.47588790	     19.47791739	     -1.75372632	    -16.60252129	    -28.72584725	     -0.50136062	      2.14250416	     -6.48103613	      6.09965960	     -6.80692556	     -3.61641895	     13.60225046	    -11.11305142	     -0.19395934	      8.56814437	     -8.89741329	     -3.46137207	    -11.44459013	      1.64503632	     -1.92543177	      8.54366304	     -8.49575993	     10.37423010	     16.81777932	     89.95437384	      0.00000000	      0.00000000	     16.14586701	     12.45063356	    -12.99991204	     24.65501324	     89.95437384	      0.00000000	      0.00000000
